<svg width="16" height="16" viewBox="0 0 16 16" fill="none" xmlns="http://www.w3.org/2000/svg">
<g clip-path="url(#clip0_3_21)">
<g clip-path="url(#clip1_3_21)">
<path d="M6.89867 8.52503V3.19583C6.89867 3.19583 6.86609 2.15197 7.88235 1.90636C8.89862 1.66074 10.02 1.47653 10.6281 2.52776C11.2361 3.57898 11.1377 5.88223 10.4602 7.3995C10.4602 7.3995 8.99084 8.56617 6.8999 8.6724C4.80897 8.77862 6.8999 8.5238 6.8999 8.5238" fill="#F6A86C"/>
<path d="M7.01302 8.62207C7.01302 8.62207 7.37145 6.48523 6.64845 5.85892C5.92544 5.2326 5.10099 5.3462 4.47636 5.85892C3.85172 6.37164 4.04108 7.36453 4.04108 7.36453C4.04108 7.36453 4.70199 9.03839 7.01302 8.62514" fill="#F18A63"/>
<path d="M10.2856 3.98733C10.2857 4.244 10.2096 4.49493 10.0669 4.70839C9.92423 4.92185 9.72135 5.08824 9.48395 5.18652C9.24655 5.2848 8.98529 5.31054 8.73324 5.2605C8.48119 5.21046 8.24966 5.08687 8.06794 4.90538C7.88623 4.72389 7.76249 4.49265 7.71239 4.24091C7.66228 3.98918 7.68806 3.72825 7.78646 3.49115C7.88486 3.25404 8.05146 3.05141 8.26518 2.9089C8.47891 2.76638 8.73016 2.69037 8.98714 2.69049C9.33147 2.69065 9.66164 2.82734 9.90511 3.07051C10.1486 3.31368 10.2854 3.64344 10.2856 3.98733" fill="#F18A63"/>
<path d="M6.41666 8.7694C6.32321 8.7694 6.23222 8.7694 6.14185 8.76264C5.31125 8.71843 4.68969 8.47527 4.3454 8.05896C3.60149 7.1594 3.86524 6.46984 4.08841 6.13764C4.51324 5.50642 5.46065 5.15519 6.15476 5.37624C6.38563 5.4418 6.5858 5.58689 6.71976 5.7858L6.75603 3.51879C6.76034 3.22958 6.76649 2.90046 6.90727 2.61125C7.03515 2.34967 7.26816 2.12616 7.62229 1.92906C8.36005 1.51642 9.44824 1.36292 10.2266 1.94748C10.8217 2.39449 11.1519 3.21423 11.1814 4.31765C11.2056 5.20592 11.0797 6.09193 10.8088 6.93835C10.7516 7.11764 10.6778 7.32212 10.5272 7.4701C9.79868 8.18238 7.9051 8.7694 6.41728 8.7694M5.7121 5.5058C5.16554 5.5058 4.55013 5.79993 4.24949 6.24265C3.91627 6.73756 4.00357 7.33808 4.49541 7.93247C4.80281 8.30641 5.37704 8.52562 6.15537 8.56615C7.74586 8.64966 9.73782 7.96992 10.3938 7.32887C10.5131 7.21098 10.5739 7.0415 10.6262 6.87694C10.8906 6.05073 11.0136 5.18593 10.9902 4.31888C10.9705 3.59309 10.802 2.61862 10.1122 2.09914C9.40398 1.56739 8.40001 1.71414 7.71881 2.09484C7.39604 2.27537 7.1907 2.47063 7.08126 2.69783C6.9583 2.94897 6.954 3.25476 6.9497 3.52432L6.9042 6.49808L6.70992 6.4944C6.71976 5.88466 6.38346 5.6501 6.10004 5.56107C5.97505 5.52344 5.8451 5.50481 5.71456 5.5058" fill="#E96454"/>
<path d="M11.3806 7.45845C11.2736 7.45845 11.166 7.44985 11.0615 7.44003L10.4688 7.38354L10.4879 7.19134L11.0799 7.24783C11.391 7.27731 11.7384 7.29205 11.9406 7.0888C12.1429 6.88556 12.1134 6.5331 11.9812 6.29056C11.9429 6.20391 11.8767 6.13257 11.7931 6.08792C11.7462 6.07124 11.6963 6.06437 11.6466 6.06775C11.5969 6.07113 11.5484 6.08469 11.5041 6.10757C11.2834 6.20582 11.1119 6.49564 11.2121 6.73573C11.2447 6.81617 11.324 6.90398 11.4193 6.9052L11.5269 6.84748L11.5447 6.77441L11.7292 6.71301C11.7419 6.75517 11.7442 6.79976 11.7361 6.84304C11.728 6.88631 11.7096 6.927 11.6824 6.9617C11.6515 7.00351 11.6112 7.03755 11.5648 7.06111C11.5183 7.08466 11.4671 7.09709 11.415 7.0974C11.2305 7.09371 11.0916 6.95003 11.0326 6.8088C10.9004 6.49134 11.0836 6.07994 11.4248 5.92889C11.4937 5.89425 11.5691 5.87454 11.6461 5.87105C11.7232 5.86755 11.8001 5.88036 11.8718 5.90863C11.9953 5.97072 12.0943 6.07261 12.1527 6.19784C12.3132 6.49564 12.3587 6.94573 12.0784 7.22696C11.8939 7.41117 11.6394 7.46029 11.3806 7.46029" fill="#E96454"/>
<path d="M5.72624 11.6886C5.70191 11.6887 5.67783 11.6836 5.65558 11.6738C5.63333 11.6639 5.61342 11.6495 5.59714 11.6315L5.6039 11.4951L5.74039 11.5013L5.81478 11.4233C6.18817 10.9354 6.62529 10.4997 7.11446 10.1277L7.25034 10.1461L7.23312 10.2818C6.7571 10.6428 6.33176 11.066 5.96848 11.54C5.94141 11.579 5.9067 11.6121 5.86643 11.6373C5.82617 11.6626 5.7812 11.6794 5.73424 11.6867L5.72624 11.6886Z" fill="#E96454"/>
<path d="M6.06562 12.2387L5.99861 12.2123L5.99492 12.0748C6.46524 11.5835 6.96016 11.1028 7.46737 10.649L7.60508 10.657L7.59709 10.7939C7.09357 11.244 6.60173 11.7199 6.13571 12.2062L6.06562 12.2363" fill="#E96454"/>
<path d="M6.48738 12.7084L6.42344 12.6845L6.41422 12.5476L7.80797 10.9566L7.94445 10.9468L7.95368 11.0837L6.56115 12.6753L6.48738 12.7084Z" fill="#E96454"/>
<path d="M6.89868 13.1285L6.84519 13.1125L6.81691 12.9792C6.95585 12.7662 7.14644 12.6004 7.33027 12.4395C7.40466 12.3744 7.47966 12.3081 7.55098 12.2406C7.78676 12.0146 7.98478 11.7523 8.1375 11.4638L8.26845 11.4233L8.30842 11.5541C8.1463 11.8608 7.93604 12.1396 7.68562 12.3799C7.61123 12.4506 7.535 12.5181 7.45815 12.5856C7.27371 12.7441 7.10402 12.8927 6.97983 13.0849L6.89868 13.1285Z" fill="#E96454"/>
<path d="M8.57092 13.2727L8.48977 13.2297C8.39971 13.0951 8.28388 12.9795 8.14892 12.8897C8.01397 12.7999 7.86257 12.7377 7.70344 12.7066C7.67814 12.7014 7.65585 12.6866 7.64128 12.6653C7.62671 12.6439 7.621 12.6178 7.62536 12.5924C7.63042 12.5672 7.64519 12.5451 7.66647 12.5307C7.68776 12.5163 7.71385 12.5109 7.7391 12.5156C7.92417 12.5509 8.10032 12.6227 8.2572 12.7269C8.41409 12.831 8.54855 12.9655 8.65269 13.1223L8.62564 13.2592L8.57215 13.2746" fill="#E96454"/>
<path d="M9.36341 12.9933L9.28718 12.9553C9.01726 12.6129 8.65698 12.3526 8.24693 12.2037C8.22248 12.195 8.20248 12.1769 8.19136 12.1535C8.18023 12.13 8.17888 12.1032 8.18761 12.0787C8.19633 12.0543 8.21441 12.0343 8.23787 12.0232C8.26134 12.0121 8.28826 12.0108 8.31272 12.0195C8.75729 12.1811 9.14781 12.4635 9.44026 12.8349L9.42366 12.9706L9.36218 12.9915" fill="#E96454"/>
<path d="M10.0674 12.4727L9.99603 12.4419C9.66022 12.0866 9.21382 11.8552 8.72955 11.7855C8.71691 11.7837 8.70475 11.7795 8.69377 11.773C8.68278 11.7665 8.67319 11.7579 8.66554 11.7476C8.65789 11.7374 8.65233 11.7258 8.64917 11.7135C8.64602 11.7011 8.64534 11.6883 8.64716 11.6756C8.65154 11.6505 8.66538 11.628 8.68583 11.6127C8.70629 11.5974 8.73182 11.5905 8.75721 11.5934C9.28541 11.6697 9.77214 11.9225 10.1381 12.3105L10.1337 12.4475L10.0674 12.4739" fill="#E96454"/>
<path d="M10.4418 11.9157L10.3661 11.8801C10.2116 11.6922 10.0205 11.5375 9.80439 11.4254C9.5883 11.3134 9.35169 11.2462 9.10888 11.228C9.09619 11.2272 9.08379 11.224 9.07237 11.2184C9.06096 11.2128 9.05076 11.205 9.04236 11.1955C9.03397 11.186 9.02754 11.1749 9.02344 11.1629C9.01935 11.1508 9.01767 11.1381 9.0185 11.1255C9.02055 11.1001 9.0324 11.0764 9.05156 11.0596C9.07072 11.0428 9.09568 11.034 9.12117 11.0352C9.39078 11.0549 9.65357 11.1291 9.89359 11.2534C10.1336 11.3776 10.3458 11.5493 10.5174 11.7579L10.5026 11.8942L10.4412 11.9157" fill="#E96454"/>
<path d="M10.8783 11.244L10.8119 11.2182C10.4531 10.8866 9.97869 10.7083 9.49005 10.7214C9.46438 10.7218 9.43959 10.7121 9.42098 10.6944C9.40237 10.6767 9.39141 10.6525 9.39045 10.6269C9.38996 10.6142 9.39202 10.6015 9.39651 10.5896C9.401 10.5777 9.40783 10.5668 9.4166 10.5576C9.42537 10.5484 9.43589 10.541 9.44756 10.536C9.45922 10.5309 9.47179 10.5282 9.48452 10.528C10.0238 10.515 10.5471 10.7116 10.9441 11.0763L10.9496 11.212L10.8783 11.244" fill="#E96454"/>
<path d="M7.54298 10.3051C7.51819 10.305 7.49437 10.2955 7.47633 10.2785C7.4583 10.2615 7.4474 10.2383 7.44584 10.2136C7.42047 9.78642 7.29269 9.37156 7.07327 9.00397L7.10647 8.87073L7.23988 8.9045C7.47602 9.29903 7.6139 9.74439 7.64196 10.2032C7.64315 10.2287 7.63429 10.2536 7.61728 10.2727C7.60027 10.2917 7.57647 10.3034 7.55097 10.3051H7.54482" fill="#E96454"/>
<path d="M8.11474 11.0997H8.10245C8.07694 11.0963 8.05381 11.083 8.03813 11.0626C8.02246 11.0422 8.01552 11.0165 8.01883 10.991C8.12151 10.2044 7.9493 9.40646 7.5313 8.73194L7.56327 8.59808L7.69668 8.6294C8.13794 9.34219 8.31948 10.1852 8.21065 11.0161C8.20766 11.0394 8.19626 11.0608 8.17861 11.0763C8.16095 11.0918 8.13824 11.1003 8.11474 11.1003" fill="#E96454"/>
<path d="M8.78795 11.3342H8.7775C8.75193 11.3313 8.72853 11.3185 8.71232 11.2985C8.69612 11.2785 8.68839 11.253 8.69081 11.2274C8.79085 10.317 8.6408 9.39662 8.25677 8.56496C8.24676 8.54171 8.24625 8.51547 8.25534 8.49184C8.26442 8.46822 8.2824 8.44908 8.30542 8.4385C8.32844 8.42793 8.35469 8.42676 8.37856 8.43524C8.40244 8.44372 8.42205 8.46118 8.43321 8.4839C8.83183 9.34703 8.98843 10.302 8.88632 11.2471C8.88361 11.2708 8.8723 11.2927 8.85451 11.3086C8.83673 11.3246 8.8137 11.3335 8.7898 11.3336" fill="#E96454"/>
<path d="M9.82144 10.0767L9.77902 10.0675C9.75588 10.0562 9.73816 10.0363 9.72974 10.012C9.72133 9.9877 9.72291 9.96106 9.73414 9.93794C9.78976 9.821 9.81697 9.69259 9.81355 9.56317C9.81013 9.43375 9.77618 9.30696 9.71446 9.19311L9.7532 9.0611L9.88538 9.09978C9.96104 9.24079 10.0026 9.39753 10.0068 9.55746C10.0109 9.7174 9.97757 9.87608 9.90935 10.0208L9.82144 10.0755" fill="#E96454"/>
<path d="M6.7917 10.3045L6.69641 10.2259C6.6739 10.0968 6.68554 9.96409 6.73019 9.84088C6.77483 9.71767 6.85093 9.60824 6.95094 9.52344L7.08804 9.53572L7.07574 9.67203C7.00248 9.73503 6.9467 9.81579 6.91375 9.90656C6.8808 9.99732 6.8718 10.095 6.88761 10.1903C6.88992 10.2028 6.88973 10.2157 6.88706 10.2282C6.88438 10.2406 6.87927 10.2524 6.87202 10.2629C6.86477 10.2734 6.85552 10.2824 6.84479 10.2893C6.83407 10.2962 6.82209 10.301 6.80953 10.3033H6.7917" fill="#E96454"/>
<path d="M6.15476 10.7663L6.06008 10.6901C5.97114 10.2962 6.00153 9.88473 6.14738 9.5081C6.15752 9.48525 6.17609 9.46719 6.19922 9.45768C6.22236 9.44817 6.24828 9.44794 6.27158 9.45704C6.29488 9.46615 6.31377 9.48388 6.3243 9.50654C6.33484 9.52921 6.33621 9.55506 6.32813 9.57871C6.19612 9.91933 6.16873 10.2915 6.24944 10.6477C6.25234 10.6602 6.25275 10.673 6.25064 10.6856C6.24852 10.6982 6.24393 10.7102 6.23713 10.721C6.23032 10.7318 6.22144 10.7412 6.21099 10.7485C6.20055 10.7558 6.18875 10.761 6.17628 10.7638H6.15476" fill="#E96454"/>
<path d="M9.24044 10.4427H9.22569C9.20025 10.4384 9.17747 10.4245 9.16219 10.4037C9.14692 10.3829 9.14036 10.357 9.14392 10.3315C9.23105 9.76648 9.16306 9.1884 8.94718 8.6589C8.9394 8.63553 8.9408 8.61008 8.95111 8.58771C8.96142 8.56534 8.97986 8.54772 9.00269 8.53842C9.02553 8.52913 9.05105 8.52886 9.07408 8.53766C9.0971 8.54646 9.11592 8.56368 9.12671 8.58583C9.35608 9.14793 9.42853 9.76164 9.33635 10.3616C9.33282 10.3844 9.32119 10.4053 9.30359 10.4202C9.28598 10.4352 9.26358 10.4434 9.24044 10.4433" fill="#E96454"/>
<path d="M3.2068 14.4063C3.14128 14.4065 3.07714 14.3875 3.02236 14.3516C2.95383 14.303 2.89573 14.2412 2.85149 14.1698C2.80725 14.0984 2.77776 14.0189 2.76476 13.9359C2.64917 13.2721 3.11827 12.6557 3.64208 12.3898C4.12162 12.1442 4.71183 12.0828 5.44529 12.2025C5.72994 12.2492 6.01398 12.3167 6.26604 12.3763C6.27846 12.3792 6.29017 12.3845 6.3005 12.3919C6.31083 12.3994 6.31957 12.4088 6.32621 12.4197C6.33285 12.4305 6.33725 12.4426 6.33917 12.4552C6.34108 12.4678 6.34047 12.4806 6.33736 12.4929C6.33137 12.5179 6.31574 12.5396 6.29387 12.5531C6.272 12.5667 6.24565 12.5711 6.22055 12.5654C5.97463 12.504 5.69182 12.4389 5.41393 12.3941C4.7229 12.2836 4.17203 12.3376 3.72999 12.5623C3.27012 12.7957 2.85698 13.3311 2.95596 13.9021C2.97323 14.0157 3.03409 14.1181 3.12564 14.1877L3.23938 14.2073C3.2624 14.2043 3.28574 14.2096 3.30517 14.2223C3.3246 14.235 3.33884 14.2542 3.3453 14.2765C3.35177 14.2988 3.35004 14.3226 3.34042 14.3437C3.3308 14.3648 3.31393 14.3818 3.29287 14.3915L3.20372 14.4038" fill="#E96454"/>
<path d="M8.23401 13.414C7.86388 13.4117 7.49882 13.3278 7.16488 13.1684C6.65521 12.9265 6.19411 12.5286 5.75083 11.9514C5.62515 11.7995 5.52431 11.6287 5.45204 11.4454C5.32908 11.1003 5.36966 10.6803 5.56701 10.2941C6.02749 9.39391 7.38128 8.22725 8.5408 8.37646C9.36402 8.48084 10.151 8.92233 10.593 9.52777C10.7554 9.74242 10.8712 9.98857 10.9329 10.2505C10.9947 10.5124 11.001 10.7843 10.9514 11.0487C10.8174 11.7659 10.2856 12.313 9.83065 12.7066C9.59457 12.9142 9.33389 13.1236 9.02342 13.2593C8.77346 13.3636 8.50491 13.4162 8.23401 13.414M8.34037 8.55637C7.31858 8.55637 6.14308 9.60023 5.74284 10.3813C5.56947 10.7196 5.53135 11.0843 5.63771 11.3791C5.70411 11.5433 5.79534 11.6963 5.90822 11.8329C6.32936 12.3855 6.76894 12.7637 7.24849 12.9922C7.81472 13.2605 8.45042 13.2936 8.9478 13.0806C9.23245 12.9578 9.47837 12.76 9.70216 12.5636C10.1325 12.1884 10.6379 11.672 10.7608 11.0107C10.8056 10.7726 10.8002 10.5279 10.7448 10.2921C10.6894 10.0563 10.5854 9.83468 10.4393 9.64137C10.0268 9.07707 9.29147 8.66628 8.51928 8.56742C8.45993 8.56003 8.40018 8.55634 8.34037 8.55637" fill="#E96454"/>
</g>
</g>
<defs>
<clipPath id="clip0_3_21">
<rect width="12.2188" height="13.375" fill="white" transform="translate(1.40625 1.3125)"/>
</clipPath>
<clipPath id="clip1_3_21">
<rect width="9.53125" height="12.8438" fill="white" transform="translate(2.75 1.5625)"/>
</clipPath>
</defs>
</svg>
