<svg width="394" height="172" viewBox="0 0 394 172" fill="none" xmlns="http://www.w3.org/2000/svg">
<g clip-path="url(#clip0_203_2170)">
<path d="M47.4446 91.983V30.9889C47.4446 30.9889 47.072 19.0417 58.694 16.2306C70.3161 13.4194 83.1405 11.3111 90.094 23.3427C97.0476 35.3742 95.9226 61.7354 88.1746 79.101C88.1746 79.101 71.3707 92.4538 47.4586 93.6696C23.5466 94.8854 47.4586 91.9689 47.4586 91.9689" fill="#F6A86C"/>
<path d="M48.7522 93.0933C48.7522 93.0933 52.8512 68.6367 44.5829 61.4684C36.3145 54.3 26.8861 55.6002 19.7427 61.4684C12.5993 67.3365 14.7648 78.7005 14.7648 78.7005C14.7648 78.7005 22.323 97.8582 48.7522 93.1285" fill="#F18A63"/>
<path d="M86.1777 40.0477C86.1791 42.9853 85.3088 45.8573 83.6769 48.3004C82.045 50.7435 79.7248 52.6479 77.0099 53.7727C74.295 54.8975 71.3073 55.1922 68.4248 54.6194C65.5423 54.0467 62.8945 52.6322 60.8164 50.555C58.7383 48.4778 57.3232 45.8312 56.7502 42.95C56.1772 40.0688 56.472 37.0824 57.5973 34.3687C58.7226 31.655 60.6279 29.3359 63.0721 27.7047C65.5162 26.0735 68.3895 25.2036 71.3284 25.205C75.2661 25.2069 79.042 26.7713 81.8264 29.5544C84.6107 32.3375 86.1758 36.1117 86.1777 40.0477" fill="#F18A63"/>
<path d="M41.9324 94.78C40.8637 94.78 39.8231 94.78 38.7896 94.7027C29.2908 94.1967 22.1826 91.4137 18.2453 86.6489C9.73789 76.3532 12.7541 68.461 15.3064 64.659C20.1647 57.4344 30.9993 53.4145 38.9372 55.9445C41.5775 56.6948 43.8666 58.3555 45.3986 60.632L45.8134 34.6855C45.8626 31.3754 45.933 27.6085 47.543 24.2984C49.0055 21.3046 51.6702 18.7465 55.72 16.4906C64.157 11.7679 76.6017 10.011 85.5028 16.7014C92.3088 21.8176 96.0843 31.1997 96.4218 43.8286C96.6995 53.9952 95.259 64.1357 92.1611 73.8232C91.5072 75.8753 90.6635 78.2155 88.9409 79.9092C80.6093 88.0615 58.9542 94.78 41.9394 94.78H41.9324ZM33.875 57.4274C27.6245 57.4274 20.5866 60.7937 17.1485 65.8607C13.3377 71.5251 14.3361 78.3983 19.9608 85.2012C23.4763 89.4811 30.0431 91.99 38.9442 92.4538C57.1332 93.4096 79.9133 85.6298 87.4152 78.2928C88.7792 76.9435 89.4753 75.0038 90.0729 73.1204C93.096 63.6642 94.5032 53.7664 94.2352 43.8427C94.0102 35.5359 92.0838 24.3828 84.1951 18.4373C76.0955 12.3512 64.614 14.0309 56.8238 18.3881C53.1326 20.4542 50.7843 22.6891 49.5328 25.2894C48.1266 28.1637 48.0774 31.6635 48.0282 34.7487L47.5079 68.7843L45.2861 68.7421C45.3986 61.7635 41.5527 59.0789 38.3115 58.0599C36.882 57.6293 35.396 57.416 33.9031 57.4274" fill="#E96454"/>
<path d="M98.6998 79.7757C97.4764 79.7757 96.246 79.6773 95.0507 79.5649L88.2729 78.9183L88.4909 76.7186L95.2617 77.3652C98.8193 77.7025 102.792 77.8712 105.105 75.545C107.418 73.2188 107.081 69.1848 105.569 66.4089C105.131 65.4172 104.374 64.6007 103.417 64.0897C102.881 63.8987 102.31 63.8201 101.742 63.8588C101.173 63.8975 100.619 64.0526 100.113 64.3146C97.5889 65.439 95.6273 68.7562 96.7733 71.504C97.1459 72.4247 98.0529 73.4296 99.1427 73.4437L100.373 72.7831L100.577 71.9468L102.686 71.244C102.832 71.7265 102.859 72.2369 102.766 72.7322C102.673 73.2274 102.462 73.6932 102.152 74.0902C101.798 74.5689 101.337 74.9584 100.806 75.228C100.275 75.4976 99.689 75.6398 99.0935 75.6434C96.9842 75.6012 95.3952 73.9567 94.7203 72.3403C93.2086 68.707 95.3038 63.9984 99.206 62.2695C99.9935 61.8731 100.856 61.6474 101.737 61.6075C102.618 61.5675 103.497 61.7141 104.317 62.0376C105.731 62.7483 106.863 63.9144 107.531 65.3477C109.366 68.7562 109.886 73.9075 106.68 77.1262C104.571 79.2346 101.66 79.7968 98.6998 79.7968" fill="#E96454"/>
<path d="M34.0365 128.19C33.7583 128.191 33.4829 128.134 33.2284 128.021C32.974 127.908 32.7462 127.743 32.5601 127.536L32.6374 125.976L34.1983 126.047L35.049 125.154C39.3192 119.57 44.318 114.583 49.9123 110.325L51.4661 110.536L51.2693 112.089C45.8255 116.221 40.9612 121.064 36.8067 126.489C36.4972 126.936 36.1002 127.315 35.6397 127.604C35.1793 127.893 34.665 128.085 34.1279 128.169L34.0365 128.19Z" fill="#E96454"/>
<path d="M37.9177 134.487L37.1513 134.185L37.1091 132.611C42.4878 126.988 48.1476 121.486 53.9481 116.292L55.523 116.383L55.4316 117.951C49.6733 123.102 44.0486 128.548 38.7192 134.114L37.9177 134.459" fill="#E96454"/>
<path d="M42.7407 139.863L42.0095 139.589L41.9041 138.022L57.8431 119.813L59.404 119.701L59.5094 121.268L43.5844 139.484L42.7407 139.863Z" fill="#E96454"/>
<path d="M47.4444 144.67L46.8327 144.487L46.5093 142.962C48.0983 140.524 50.2778 138.626 52.3801 136.785C53.2308 136.04 54.0886 135.281 54.9042 134.508C57.6006 131.922 59.8651 128.92 61.6116 125.618L63.1092 125.154L63.5662 126.651C61.7122 130.162 59.3077 133.353 56.4439 136.103C55.5932 136.912 54.7214 137.685 53.8425 138.458C51.7332 140.271 49.7927 141.972 48.3725 144.171L47.4444 144.67Z" fill="#E96454"/>
<path d="M66.5686 146.322L65.6405 145.83C64.6107 144.288 63.2859 142.966 61.7426 141.938C60.1993 140.911 58.4679 140.198 56.648 139.842C56.3586 139.783 56.1037 139.613 55.9371 139.369C55.7705 139.125 55.7053 138.826 55.7551 138.535C55.8129 138.247 55.9818 137.994 56.2253 137.829C56.4687 137.665 56.767 137.603 57.0558 137.656C59.1723 138.06 61.1867 138.882 62.9809 140.074C64.7751 141.266 66.3128 142.805 67.5037 144.6L67.1944 146.167L66.5827 146.343" fill="#E96454"/>
<path d="M75.6313 143.124L74.7595 142.688C71.6727 138.77 67.5525 135.791 62.8632 134.086C62.5835 133.987 62.3549 133.78 62.2276 133.512C62.1004 133.244 62.0849 132.936 62.1847 132.656C62.2845 132.377 62.4913 132.148 62.7596 132.021C63.0279 131.894 63.3358 131.878 63.6155 131.978C68.6996 133.827 73.1657 137.06 76.5102 141.311L76.3203 142.864L75.6172 143.103" fill="#E96454"/>
<path d="M83.6817 137.165L82.8662 136.813C79.0258 132.746 73.9207 130.098 68.3825 129.3C68.238 129.28 68.0989 129.231 67.9733 129.156C67.8477 129.082 67.738 128.984 67.6505 128.867C67.563 128.75 67.4994 128.617 67.4634 128.476C67.4273 128.334 67.4195 128.187 67.4404 128.042C67.4905 127.755 67.6487 127.497 67.8826 127.322C68.1165 127.147 68.4086 127.068 68.6989 127.101C74.7395 127.975 80.3057 130.868 84.4903 135.309L84.4411 136.876L83.6817 137.179" fill="#E96454"/>
<path d="M87.9635 130.79L87.0987 130.383C85.3311 128.232 83.1457 126.462 80.6744 125.179C78.2032 123.896 75.4973 123.127 72.7205 122.919C72.5754 122.91 72.4335 122.873 72.303 122.809C72.1725 122.745 72.0559 122.656 71.9598 122.547C71.8638 122.438 71.7903 122.311 71.7434 122.173C71.6966 122.036 71.6774 121.891 71.6869 121.746C71.7103 121.455 71.8459 121.184 72.065 120.992C72.2841 120.799 72.5695 120.699 72.8611 120.713C75.9444 120.938 78.9497 121.788 81.6945 123.209C84.4393 124.631 86.8663 126.596 88.8283 128.984L88.6595 130.544L87.9564 130.79" fill="#E96454"/>
<path d="M92.9555 123.102L92.1962 122.807C88.0932 119.012 82.6679 116.971 77.0798 117.121C76.7862 117.125 76.5027 117.014 76.2898 116.812C76.077 116.61 75.9517 116.332 75.9408 116.039C75.9351 115.894 75.9587 115.749 76.01 115.612C76.0614 115.476 76.1395 115.352 76.2398 115.246C76.34 115.141 76.4604 115.057 76.5938 114.998C76.7272 114.94 76.8709 114.909 77.0165 114.908C83.1837 114.758 89.1681 117.008 93.7078 121.183L93.7711 122.737L92.9555 123.102" fill="#E96454"/>
<path d="M54.8128 112.356C54.5293 112.355 54.2569 112.246 54.0506 112.052C53.8444 111.858 53.7197 111.592 53.7019 111.309C53.4117 106.42 51.9505 101.672 49.4412 97.4646L49.8208 95.9396L51.3465 96.3261C54.047 100.842 55.6238 105.939 55.9447 111.19C55.9583 111.482 55.857 111.767 55.6625 111.985C55.468 112.203 55.1958 112.337 54.9042 112.356H54.8339" fill="#E96454"/>
<path d="M61.3515 121.45H61.2109C60.9192 121.412 60.6547 121.259 60.4754 121.026C60.2962 120.793 60.2168 120.498 60.2547 120.207C61.4289 111.204 59.4596 102.071 54.6792 94.3513L55.0448 92.8193L56.5705 93.1777C61.6168 101.336 63.6929 110.984 62.4483 120.495C62.4141 120.761 62.2838 121.006 62.0819 121.183C61.8799 121.36 61.6203 121.458 61.3515 121.457" fill="#E96454"/>
<path d="M69.0505 124.135H68.931C68.6385 124.101 68.3709 123.955 68.1856 123.726C68.0002 123.497 67.9119 123.205 67.9396 122.912C69.0836 112.493 67.3676 101.958 62.9758 92.4398C62.8613 92.1736 62.8555 91.8734 62.9594 91.603C63.0634 91.3326 63.2689 91.1135 63.5322 90.9925C63.7955 90.8714 64.0957 90.858 64.3687 90.9551C64.6417 91.0522 64.866 91.2521 64.9937 91.5121C69.5522 101.391 71.3431 112.321 70.1754 123.137C70.1445 123.409 70.0151 123.659 69.8117 123.842C69.6083 124.025 69.345 124.126 69.0716 124.128" fill="#E96454"/>
<path d="M80.8694 109.742L80.3843 109.637C80.1196 109.508 79.9169 109.279 79.8207 109.001C79.7245 108.723 79.7426 108.419 79.871 108.154C80.5071 106.815 80.8183 105.346 80.7792 103.865C80.7401 102.383 80.3518 100.932 79.646 99.6292L80.0889 98.1182L81.6006 98.561C82.4658 100.175 82.9413 101.969 82.9889 103.799C83.0365 105.63 82.655 107.446 81.8748 109.103L80.8694 109.728" fill="#E96454"/>
<path d="M46.2212 112.349L45.1314 111.45C44.874 109.972 45.0071 108.453 45.5177 107.043C46.0282 105.633 46.8984 104.381 48.0422 103.41L49.6101 103.551L49.4694 105.111C48.6317 105.832 47.9937 106.756 47.6169 107.795C47.2401 108.834 47.1371 109.952 47.318 111.042C47.3444 111.186 47.3422 111.333 47.3116 111.476C47.281 111.618 47.2226 111.754 47.1397 111.874C47.0567 111.994 46.9509 112.097 46.8283 112.176C46.7057 112.255 46.5687 112.309 46.4251 112.335H46.2212" fill="#E96454"/>
<path d="M38.9371 117.634L37.8543 116.763C36.8372 112.254 37.1847 107.545 38.8527 103.234C38.9686 102.973 39.181 102.766 39.4456 102.657C39.7102 102.549 40.0066 102.546 40.273 102.65C40.5395 102.754 40.7555 102.957 40.876 103.217C40.9964 103.476 41.0121 103.772 40.9198 104.043C39.4101 107.941 39.0968 112.201 40.0198 116.278C40.053 116.42 40.0577 116.567 40.0335 116.711C40.0094 116.855 39.9568 116.993 39.879 117.117C39.8012 117.24 39.6996 117.347 39.5802 117.431C39.4607 117.515 39.3258 117.575 39.1832 117.606H38.9371" fill="#E96454"/>
<path d="M74.2253 113.931H74.0565C73.7656 113.882 73.505 113.722 73.3304 113.485C73.1557 113.247 73.0808 112.951 73.1214 112.659C74.1179 106.192 73.3403 99.5753 70.8715 93.515C70.7825 93.2476 70.7985 92.9563 70.9164 92.7002C71.0343 92.4442 71.2452 92.2425 71.5063 92.1361C71.7675 92.0298 72.0593 92.0266 72.3227 92.1274C72.586 92.2281 72.8012 92.4252 72.9245 92.6787C75.5477 99.1121 76.3763 106.136 75.3221 113.003C75.2816 113.264 75.1487 113.502 74.9474 113.674C74.7461 113.846 74.4898 113.939 74.2253 113.938" fill="#E96454"/>
<path d="M5.22403 159.295C4.47477 159.298 3.74122 159.08 3.11476 158.67C2.33106 158.113 1.66669 157.405 1.16075 156.588C0.65482 155.771 0.317551 154.861 0.168816 153.912C-1.15299 146.315 4.21158 139.259 10.2019 136.216C15.686 133.405 22.4357 132.702 30.8235 134.072C34.0788 134.606 37.3271 135.379 40.2098 136.061C40.3517 136.094 40.4857 136.155 40.6038 136.24C40.7219 136.326 40.8219 136.433 40.8978 136.558C40.9737 136.682 41.0241 136.82 41.046 136.964C41.0679 137.108 41.0609 137.255 41.0254 137.396C40.9568 137.683 40.7781 137.93 40.528 138.086C40.2778 138.241 39.9765 138.291 39.6895 138.226C36.8771 137.523 33.6429 136.778 30.4649 136.265C22.5622 135 16.2625 135.618 11.2073 138.191C5.94821 140.861 1.22345 146.989 2.35543 153.525C2.55292 154.825 3.2489 155.997 4.29595 156.793L5.59667 157.018C5.85991 156.984 6.1268 157.044 6.349 157.19C6.57121 157.335 6.73402 157.555 6.80797 157.81C6.88191 158.065 6.8621 158.337 6.75211 158.579C6.64211 158.821 6.44921 159.015 6.20835 159.126L5.18888 159.267" fill="#E96454"/>
<path d="M62.7157 147.938C58.4828 147.912 54.308 146.952 50.489 145.127C44.6603 142.358 39.3872 137.804 34.3179 131.198C32.8806 129.46 31.7273 127.505 30.9009 125.407C29.4947 121.457 29.9587 116.65 32.2157 112.23C37.4818 101.927 52.9638 88.5745 66.2241 90.2822C75.6385 91.477 84.638 96.5299 89.6932 103.459C91.5509 105.916 92.8751 108.733 93.5809 111.731C94.2867 114.728 94.3587 117.84 93.7922 120.867C92.2595 129.076 86.1778 135.337 80.9749 139.842C78.2751 142.218 75.294 144.614 71.7434 146.167C68.8848 147.361 65.8137 147.964 62.7157 147.938V147.938ZM63.932 92.3414C52.2467 92.3414 38.8036 104.289 34.2265 113.228C32.2438 117.1 31.8079 121.275 33.0242 124.648C33.7836 126.527 34.8269 128.279 36.1178 129.842C40.934 136.167 45.9611 140.496 51.4452 143.11C57.9206 146.181 65.1906 146.561 70.8785 144.122C74.1339 142.716 76.9462 140.454 79.5055 138.205C84.4271 133.911 90.2065 128 91.6127 120.431C92.125 117.707 92.0625 114.906 91.4293 112.207C90.7961 109.509 89.6061 106.972 87.9355 104.759C83.2178 98.3009 74.8088 93.5993 65.978 92.4679C65.2993 92.3833 64.616 92.3411 63.932 92.3414" fill="#E96454"/>
</g>
<g clip-path="url(#clip1_203_2170)">
<path d="M210.16 72.41L206.62 58.9H183.18L179.53 72.41H158.12L181.66 -7.62939e-06H207.66L231.49 72.41H210.16ZM202.57 42.91L199.46 31.07C198.74 28.45 197.86 25.0467 196.82 20.86C195.78 16.6733 195.113 13.6733 194.82 11.86C194.52 13.53 193.94 16.3 193.07 20.15C192.2 24 190.26 31.58 187.27 42.89L202.57 42.91Z" fill="#E96454"/>
<path d="M251.39 46.21V72.46H231.9V0.290001H255.53C275.13 0.290001 284.933 7.39666 284.94 21.61C284.94 29.95 280.86 36.41 272.7 40.99L293.7 72.42H271.6L256.34 46.21H251.39ZM251.39 31.56H255.04C261.853 31.56 265.257 28.56 265.25 22.56C265.25 17.5933 261.917 15.11 255.25 15.11H251.4L251.39 31.56Z" fill="#E96454"/>
<path d="M324.72 72.42H305.24V16.23H287.63V0.290001H342.29V16.23H324.72V72.42Z" fill="#E96454"/>
<path d="M387.06 72.42H347.64V0.290001H387.06V4.93H352.67V32.22H385.13V36.85H352.67V67.78H387.06V72.42Z" fill="#F18A63"/>
<path d="M199.91 99.83C197.264 99.741 194.639 100.339 192.293 101.566C189.946 102.793 187.957 104.606 186.52 106.83C183.313 111.497 181.71 117.96 181.71 126.22C181.71 143.34 188.22 151.9 201.24 151.9C205.116 151.908 208.972 151.355 212.69 150.26C216.468 149.115 220.186 147.78 223.83 146.26V166.59C215.87 169.986 207.283 171.665 198.63 171.52C185.203 171.52 174.907 167.627 167.74 159.84C160.573 152.053 156.993 140.793 157 126.06C157 116.847 158.737 108.75 162.21 101.77C165.473 95.0165 170.702 89.4076 177.21 85.68C183.717 81.92 191.383 80.04 200.21 80.04C209.757 80.0214 219.183 82.1687 227.78 86.32L220.34 105.31C217.135 103.807 213.839 102.508 210.47 101.42C207.048 100.339 203.478 99.8022 199.89 99.83" fill="#5A0A00"/>
<path d="M312.84 125.76C312.84 140.727 309.173 152.107 301.84 159.9C294.507 167.693 283.753 171.59 269.58 171.59C255.62 171.59 244.917 167.677 237.47 159.85C230.023 152.023 226.313 140.62 226.34 125.64C226.34 110.82 230.043 99.51 237.45 91.71C244.857 83.91 255.617 80.0033 269.73 79.99C283.89 79.99 294.623 83.8667 301.93 91.62C309.237 99.3733 312.903 110.753 312.93 125.76H312.84ZM251.7 125.76C251.7 142.96 257.683 151.563 269.65 151.57C275.743 151.57 280.26 149.48 283.2 145.3C286.13 141.11 287.61 134.61 287.61 125.76C287.61 116.91 286.11 110.31 283.14 106.07C280.17 101.83 275.7 99.71 269.77 99.71C257.73 99.71 251.707 108.393 251.7 125.76Z" fill="#5A0A00"/>
<path d="M341.34 138V170.37H317.34V81.37H346.49C370.677 81.37 382.767 90.1333 382.76 107.66C382.76 117.96 377.73 125.933 367.67 131.58L393.6 170.34H366.34L347.44 138H341.34ZM341.34 119.92H345.85C354.243 119.92 358.44 116.207 358.44 108.78C358.44 102.653 354.323 99.59 346.09 99.59H341.34V119.92Z" fill="#5A0A00"/>
</g>
<defs>
<clipPath id="clip0_203_2170">
<rect width="109" height="147" fill="white" transform="translate(0 12.295)"/>
</clipPath>
<clipPath id="clip1_203_2170">
<rect width="236.57" height="171.59" fill="white" transform="translate(157)"/>
</clipPath>
</defs>
</svg>
